<svg width="76" height="34" viewBox="0 0 76 34" fill="none" xmlns="http://www.w3.org/2000/svg">
<path d="M2.975 23.95H5.45C6.11667 23.95 6.675 23.8333 7.125 23.6C7.575 23.3667 7.925 23.0833 8.175 22.75C8.44167 22.4167 8.625 22.0583 8.725 21.675C8.84167 21.2917 8.9 20.95 8.9 20.65C8.9 20.3333 8.84167 19.9917 8.725 19.625C8.625 19.2417 8.44167 18.8917 8.175 18.575C7.90833 18.2417 7.55 17.9667 7.1 17.75C6.66667 17.5333 6.125 17.425 5.475 17.425H2.975V23.95ZM0.225 33V14.875H5.175C6.125 14.875 6.99167 15 7.775 15.25C8.575 15.5 9.25833 15.875 9.825 16.375C10.4083 16.8583 10.8583 17.4583 11.175 18.175C11.4917 18.875 11.65 19.6833 11.65 20.6C11.65 21.3167 11.5417 22.0333 11.325 22.75C11.1083 23.45 10.7583 24.0833 10.275 24.65C9.79167 25.2 9.15833 25.65 8.375 26C7.59167 26.35 6.64167 26.525 5.525 26.525H2.975V33H0.225ZM35.9287 14.95C35.3287 16.5333 34.687 18.2 34.0037 19.95C33.337 21.6833 32.6704 23.3917 32.0037 25.075C31.3537 26.7583 30.737 28.3583 30.1537 29.875C29.5704 31.3917 29.0787 32.7 28.6787 33.8L24.6287 23.675C24.5787 23.5417 24.537 23.4417 24.5037 23.375C24.4704 23.3083 24.437 23.2083 24.4037 23.075C24.4037 23.1417 24.3954 23.2083 24.3787 23.275C24.362 23.325 24.3454 23.3833 24.3287 23.45C24.312 23.5167 24.2954 23.5833 24.2787 23.65C23.712 24.95 23.1537 26.225 22.6037 27.475C22.3704 28.0083 22.1287 28.5583 21.8787 29.125C21.6287 29.6917 21.387 30.2583 21.1537 30.825C20.9204 31.375 20.687 31.9083 20.4537 32.425C20.237 32.9417 20.037 33.4083 19.8537 33.825C18.6537 30.675 17.4454 27.5333 16.2287 24.4C15.012 21.2667 13.8037 18.1167 12.6037 14.95H15.6787C16.0787 16.05 16.487 17.1583 16.9037 18.275C17.337 19.3917 17.737 20.4667 18.1037 21.5C18.487 22.5333 18.8287 23.4917 19.1287 24.375C19.4287 25.2583 19.662 26.0083 19.8287 26.625L20.0287 27.5C20.0454 27.4167 20.087 27.2833 20.1537 27.1C20.2204 26.9 20.2704 26.7583 20.3037 26.675C20.3204 26.6083 20.3787 26.4583 20.4787 26.225C20.5787 25.9917 20.6954 25.7167 20.8287 25.4C20.962 25.0667 21.112 24.7083 21.2787 24.325C21.4454 23.9417 21.612 23.55 21.7787 23.15C22.1787 22.2333 22.6204 21.2167 23.1037 20.1C22.8204 19.3167 22.5704 18.5833 22.3537 17.9C22.1537 17.3167 21.962 16.7417 21.7787 16.175C21.612 15.6083 21.487 15.2 21.4037 14.95H24.0287C24.7454 16.8333 25.412 18.575 26.0287 20.175C26.2787 20.8583 26.5287 21.5417 26.7787 22.225C27.0454 22.9083 27.287 23.5417 27.5037 24.125C27.737 24.7083 27.937 25.225 28.1037 25.675C28.2704 26.1083 28.387 26.425 28.4537 26.625C28.5037 26.775 28.537 26.925 28.5537 27.075C28.587 27.2083 28.6204 27.35 28.6537 27.5C28.687 27.35 28.712 27.2 28.7287 27.05C28.762 26.9 28.7954 26.7583 28.8287 26.625C28.9787 25.975 29.212 25.2 29.5287 24.3C29.8454 23.4 30.1954 22.4333 30.5787 21.4C30.9787 20.3667 31.3954 19.3 31.8287 18.2C32.262 17.0833 32.6787 16 33.0787 14.95H35.9287ZM48.242 33C48.1587 32.8167 48.042 32.55 47.892 32.2C47.742 31.85 47.567 31.45 47.367 31C47.1837 30.5333 46.9753 30.0333 46.742 29.5C46.5253 28.95 46.3003 28.3833 46.067 27.8H39.667L37.517 33H34.817L42.892 14.025C42.992 14.2583 43.167 14.6833 43.417 15.3C43.6837 15.9167 43.992 16.6583 44.342 17.525C44.7087 18.375 45.1087 19.325 45.542 20.375C45.992 21.4083 46.442 22.4583 46.892 23.525C47.3587 24.5917 47.8087 25.6417 48.242 26.675C48.692 27.7083 49.1003 28.6583 49.467 29.525C49.8337 30.3917 50.142 31.1333 50.392 31.75C50.6587 32.35 50.842 32.7667 50.942 33H48.242ZM40.617 25.5H45.142C44.9087 24.95 44.6837 24.425 44.467 23.925C44.267 23.4083 44.0753 22.9417 43.892 22.525C43.7253 22.0917 43.5753 21.7167 43.442 21.4C43.3087 21.0833 43.2087 20.8333 43.142 20.65C43.1253 20.6167 43.0837 20.5 43.017 20.3C42.967 20.1 42.9253 19.9167 42.892 19.75C42.8587 19.9167 42.8087 20.1 42.742 20.3C42.6753 20.5 42.6337 20.6167 42.617 20.65L40.617 25.5ZM74.5332 25.3315C74.5332 23.9692 74.2109 22.8193 73.5664 21.8818C72.9365 20.9297 71.9331 20.0947 70.5562 19.377C69.1938 18.6445 67.1284 17.8975 64.3599 17.1357C61.5913 16.374 59.5112 15.605 58.1196 14.8286C56.7427 14.0522 55.7319 13.1514 55.0874 12.126C54.4429 11.1006 54.1206 9.85547 54.1206 8.39062C54.1206 6.06152 55.1021 4.1792 57.0649 2.74365C59.0278 1.29346 61.584 0.568359 64.7334 0.568359C66.7842 0.568359 68.6226 0.971191 70.2485 1.77686C71.8892 2.56787 73.1562 3.68848 74.0498 5.13867C74.9434 6.57422 75.3901 8.2002 75.3901 10.0166H74.2036C74.2036 7.62891 73.3247 5.65869 71.5669 4.10596C69.8091 2.53857 67.5312 1.75488 64.7334 1.75488C61.9209 1.75488 59.6431 2.38477 57.8999 3.64453C56.1714 4.88965 55.3071 6.45703 55.3071 8.34668C55.3071 10.2656 56.0615 11.811 57.5703 12.9829C59.0791 14.1548 61.5693 15.1948 65.041 16.103C68.5127 16.9966 71.0542 18.0366 72.6655 19.2231C74.7163 20.7319 75.7417 22.7534 75.7417 25.2876C75.7417 26.8989 75.2876 28.3271 74.3794 29.5723C73.4712 30.8027 72.1821 31.7549 70.5122 32.4287C68.8423 33.1025 66.9673 33.4395 64.8872 33.4395C62.5728 33.4395 60.4927 33.0586 58.647 32.2969C56.8013 31.5205 55.4097 30.4219 54.4722 29.001C53.5493 27.5801 53.0879 25.9028 53.0879 23.9692H54.2744C54.2744 26.5913 55.2559 28.6274 57.2188 30.0776C59.1816 31.5278 61.7378 32.2529 64.8872 32.2529C67.6851 32.2529 69.9922 31.6157 71.8086 30.3413C73.625 29.0522 74.5332 27.3823 74.5332 25.3315Z" fill="black"/>
</svg>
